<mxfile host="app.diagrams.net" modified="2021-01-18T05:53:35.520Z" agent="5.0 (Macintosh; Intel Mac OS X 10_15_7) AppleWebKit/537.36 (KHTML, like Gecko) Chrome/80.0.3987.149 Safari/537.36 Edg/80.0.361.69" etag="ayQ2YowhjDavd7vrxxBZ" version="14.1.8" type="github">
  <diagram id="DcKS1gWii1AMZDfLGtgn" name="Page-1">
    <mxGraphModel dx="1426" dy="767" grid="1" gridSize="10" guides="1" tooltips="1" connect="1" arrows="1" fold="1" page="1" pageScale="1" pageWidth="827" pageHeight="1169" math="0" shadow="0">
      <root>
        <mxCell id="0" />
        <mxCell id="1" parent="0" />
        <mxCell id="yAAUwjmU2Erdggg3t-V5-15" style="edgeStyle=orthogonalEdgeStyle;rounded=0;sketch=0;orthogonalLoop=1;jettySize=auto;html=1;shadow=0;fontFamily=Comic Sans MS;" edge="1" parent="1" source="GiRHvkRfX_-VjHIujBZW-1" target="yAAUwjmU2Erdggg3t-V5-4">
          <mxGeometry relative="1" as="geometry">
            <Array as="points">
              <mxPoint x="70" y="690" />
              <mxPoint x="70" y="690" />
            </Array>
          </mxGeometry>
        </mxCell>
        <mxCell id="yAAUwjmU2Erdggg3t-V5-22" value="Update User&#39;s Company" style="edgeLabel;html=1;align=center;verticalAlign=middle;resizable=0;points=[];fontFamily=Comic Sans MS;" vertex="1" connectable="0" parent="yAAUwjmU2Erdggg3t-V5-15">
          <mxGeometry x="-0.16" y="2" relative="1" as="geometry">
            <mxPoint as="offset" />
          </mxGeometry>
        </mxCell>
        <mxCell id="yAAUwjmU2Erdggg3t-V5-23" style="edgeStyle=orthogonalEdgeStyle;rounded=0;sketch=0;orthogonalLoop=1;jettySize=auto;html=1;shadow=0;fontFamily=Comic Sans MS;" edge="1" parent="1" source="GiRHvkRfX_-VjHIujBZW-1" target="yAAUwjmU2Erdggg3t-V5-4">
          <mxGeometry relative="1" as="geometry">
            <Array as="points">
              <mxPoint x="210" y="660" />
              <mxPoint x="210" y="660" />
            </Array>
          </mxGeometry>
        </mxCell>
        <mxCell id="yAAUwjmU2Erdggg3t-V5-24" value="Reindex ALL" style="edgeLabel;html=1;align=center;verticalAlign=middle;resizable=0;points=[];fontFamily=Comic Sans MS;" vertex="1" connectable="0" parent="yAAUwjmU2Erdggg3t-V5-23">
          <mxGeometry x="-0.24" y="1" relative="1" as="geometry">
            <mxPoint as="offset" />
          </mxGeometry>
        </mxCell>
        <mxCell id="GiRHvkRfX_-VjHIujBZW-1" value="" style="strokeWidth=1;shadow=0;dashed=0;align=center;html=1;shape=mxgraph.mockup.containers.browserWindow;rSize=0;strokeColor=#666666;strokeColor2=#008cff;strokeColor3=#c4c4c4;mainText=,;recursiveResize=0;fontFamily=Comic Sans MS;" parent="1" vertex="1">
          <mxGeometry y="500" width="290" height="120" as="geometry" />
        </mxCell>
        <mxCell id="GiRHvkRfX_-VjHIujBZW-2" value="&lt;font style=&quot;font-size: 13px&quot;&gt;Backoffice&lt;/font&gt;" style="strokeWidth=1;shadow=0;dashed=0;align=center;html=1;shape=mxgraph.mockup.containers.anchor;fontSize=17;fontColor=#666666;align=left;fontFamily=Comic Sans MS;" parent="GiRHvkRfX_-VjHIujBZW-1" vertex="1">
          <mxGeometry x="60" y="12" width="110" height="26" as="geometry" />
        </mxCell>
        <mxCell id="GiRHvkRfX_-VjHIujBZW-3" value="&lt;font style=&quot;font-size: 11px&quot;&gt;https://backoffice.patsnap.com&lt;/font&gt;" style="strokeWidth=1;shadow=0;dashed=0;align=center;html=1;shape=mxgraph.mockup.containers.anchor;rSize=0;fontSize=17;fontColor=#666666;align=left;fontFamily=Comic Sans MS;" parent="GiRHvkRfX_-VjHIujBZW-1" vertex="1">
          <mxGeometry x="120" y="60" width="160" height="26" as="geometry" />
        </mxCell>
        <mxCell id="GiRHvkRfX_-VjHIujBZW-7" value="" style="strokeWidth=1;shadow=0;dashed=0;align=center;html=1;shape=mxgraph.mockup.containers.browserWindow;rSize=0;strokeColor=#666666;strokeColor2=#008cff;strokeColor3=#c4c4c4;mainText=,;recursiveResize=0;fontFamily=Comic Sans MS;" parent="1" vertex="1">
          <mxGeometry x="400" y="500" width="290" height="120" as="geometry" />
        </mxCell>
        <mxCell id="GiRHvkRfX_-VjHIujBZW-8" value="&lt;font style=&quot;font-size: 13px&quot;&gt;Passport&lt;/font&gt;" style="strokeWidth=1;shadow=0;dashed=0;align=center;html=1;shape=mxgraph.mockup.containers.anchor;fontSize=17;fontColor=#666666;align=left;fontFamily=Comic Sans MS;" parent="GiRHvkRfX_-VjHIujBZW-7" vertex="1">
          <mxGeometry x="60" y="12" width="110" height="26" as="geometry" />
        </mxCell>
        <mxCell id="GiRHvkRfX_-VjHIujBZW-9" value="&lt;font style=&quot;font-size: 11px&quot;&gt;https://passport.patsnap.com&lt;/font&gt;" style="strokeWidth=1;shadow=0;dashed=0;align=center;html=1;shape=mxgraph.mockup.containers.anchor;rSize=0;fontSize=17;fontColor=#666666;align=left;fontFamily=Comic Sans MS;" parent="GiRHvkRfX_-VjHIujBZW-7" vertex="1">
          <mxGeometry x="120" y="60" width="160" height="26" as="geometry" />
        </mxCell>
        <mxCell id="GiRHvkRfX_-VjHIujBZW-26" style="edgeStyle=orthogonalEdgeStyle;rounded=0;orthogonalLoop=1;jettySize=auto;html=1;fontFamily=Comic Sans MS;" parent="1" source="GiRHvkRfX_-VjHIujBZW-10" edge="1">
          <mxGeometry relative="1" as="geometry">
            <mxPoint x="975" y="720" as="targetPoint" />
          </mxGeometry>
        </mxCell>
        <mxCell id="yAAUwjmU2Erdggg3t-V5-8" value="Group/Group Member APIs" style="edgeLabel;html=1;align=center;verticalAlign=middle;resizable=0;points=[];fontFamily=Comic Sans MS;" vertex="1" connectable="0" parent="GiRHvkRfX_-VjHIujBZW-26">
          <mxGeometry x="0.02" y="3" relative="1" as="geometry">
            <mxPoint as="offset" />
          </mxGeometry>
        </mxCell>
        <mxCell id="GiRHvkRfX_-VjHIujBZW-10" value="" style="strokeWidth=1;shadow=0;dashed=0;align=center;html=1;shape=mxgraph.mockup.containers.browserWindow;rSize=0;strokeColor=#666666;strokeColor2=#008cff;strokeColor3=#c4c4c4;mainText=,;recursiveResize=0;fontFamily=Comic Sans MS;" parent="1" vertex="1">
          <mxGeometry x="830" y="500" width="290" height="120" as="geometry" />
        </mxCell>
        <mxCell id="GiRHvkRfX_-VjHIujBZW-11" value="&lt;span style=&quot;font-size: 13px&quot;&gt;Admin Console&lt;/span&gt;" style="strokeWidth=1;shadow=0;dashed=0;align=center;html=1;shape=mxgraph.mockup.containers.anchor;fontSize=17;fontColor=#666666;align=left;fontFamily=Comic Sans MS;" parent="GiRHvkRfX_-VjHIujBZW-10" vertex="1">
          <mxGeometry x="60" y="12" width="110" height="26" as="geometry" />
        </mxCell>
        <mxCell id="GiRHvkRfX_-VjHIujBZW-12" value="&lt;font style=&quot;font-size: 11px&quot;&gt;https://admin.patsnap.com&lt;/font&gt;" style="strokeWidth=1;shadow=0;dashed=0;align=center;html=1;shape=mxgraph.mockup.containers.anchor;rSize=0;fontSize=17;fontColor=#666666;align=left;fontFamily=Comic Sans MS;" parent="GiRHvkRfX_-VjHIujBZW-10" vertex="1">
          <mxGeometry x="120" y="60" width="160" height="26" as="geometry" />
        </mxCell>
        <mxCell id="yAAUwjmU2Erdggg3t-V5-12" style="edgeStyle=orthogonalEdgeStyle;rounded=0;orthogonalLoop=1;jettySize=auto;html=1;fontFamily=Comic Sans MS;" edge="1" parent="1" source="GiRHvkRfX_-VjHIujBZW-15" target="yAAUwjmU2Erdggg3t-V5-10">
          <mxGeometry relative="1" as="geometry" />
        </mxCell>
        <mxCell id="yAAUwjmU2Erdggg3t-V5-16" value="Create/Update/Delete Index Item" style="edgeLabel;html=1;align=center;verticalAlign=middle;resizable=0;points=[];fontFamily=Comic Sans MS;" vertex="1" connectable="0" parent="yAAUwjmU2Erdggg3t-V5-12">
          <mxGeometry x="-0.2111" y="4" relative="1" as="geometry">
            <mxPoint as="offset" />
          </mxGeometry>
        </mxCell>
        <mxCell id="GiRHvkRfX_-VjHIujBZW-15" value="Identity Service" style="rounded=0;whiteSpace=wrap;html=1;fontFamily=Comic Sans MS;" parent="1" vertex="1">
          <mxGeometry x="400" y="720" width="720" height="50" as="geometry" />
        </mxCell>
        <mxCell id="GiRHvkRfX_-VjHIujBZW-19" value="Elastic Search" style="rounded=0;whiteSpace=wrap;html=1;fontFamily=Comic Sans MS;shadow=0;sketch=0;glass=0;" parent="1" vertex="1">
          <mxGeometry y="930" width="500" height="45" as="geometry" />
        </mxCell>
        <mxCell id="yAAUwjmU2Erdggg3t-V5-1" value="Group Index" style="rounded=1;whiteSpace=wrap;html=1;fontFamily=Comic Sans MS;" vertex="1" parent="1">
          <mxGeometry y="975" width="250" height="50" as="geometry" />
        </mxCell>
        <mxCell id="yAAUwjmU2Erdggg3t-V5-19" style="edgeStyle=orthogonalEdgeStyle;rounded=0;sketch=0;orthogonalLoop=1;jettySize=auto;html=1;exitX=0.25;exitY=1;exitDx=0;exitDy=0;shadow=0;fontFamily=Comic Sans MS;" edge="1" parent="1" source="yAAUwjmU2Erdggg3t-V5-4">
          <mxGeometry relative="1" as="geometry">
            <mxPoint x="75" y="930" as="targetPoint" />
          </mxGeometry>
        </mxCell>
        <mxCell id="yAAUwjmU2Erdggg3t-V5-21" value="Update ES Indexes" style="edgeLabel;html=1;align=center;verticalAlign=middle;resizable=0;points=[];fontFamily=Comic Sans MS;" vertex="1" connectable="0" parent="yAAUwjmU2Erdggg3t-V5-19">
          <mxGeometry x="-0.125" y="4" relative="1" as="geometry">
            <mxPoint as="offset" />
          </mxGeometry>
        </mxCell>
        <mxCell id="yAAUwjmU2Erdggg3t-V5-4" value="Backoffice Backend Service" style="rounded=0;whiteSpace=wrap;html=1;fontFamily=Comic Sans MS;" vertex="1" parent="1">
          <mxGeometry x="5" y="720" width="280" height="50" as="geometry" />
        </mxCell>
        <mxCell id="yAAUwjmU2Erdggg3t-V5-6" style="edgeStyle=orthogonalEdgeStyle;rounded=0;orthogonalLoop=1;jettySize=auto;html=1;fontFamily=Comic Sans MS;shadow=0;sketch=0;" edge="1" parent="1">
          <mxGeometry relative="1" as="geometry">
            <mxPoint x="560" y="620" as="sourcePoint" />
            <mxPoint x="560" y="720" as="targetPoint" />
          </mxGeometry>
        </mxCell>
        <mxCell id="yAAUwjmU2Erdggg3t-V5-7" value="Group/Group Member APIs" style="edgeLabel;html=1;align=center;verticalAlign=middle;resizable=0;points=[];fontFamily=Comic Sans MS;" vertex="1" connectable="0" parent="yAAUwjmU2Erdggg3t-V5-6">
          <mxGeometry x="-0.02" relative="1" as="geometry">
            <mxPoint as="offset" />
          </mxGeometry>
        </mxCell>
        <mxCell id="yAAUwjmU2Erdggg3t-V5-9" value="Group Member Index" style="rounded=1;whiteSpace=wrap;html=1;fontFamily=Comic Sans MS;" vertex="1" parent="1">
          <mxGeometry x="250" y="975" width="250" height="50" as="geometry" />
        </mxCell>
        <mxCell id="yAAUwjmU2Erdggg3t-V5-17" style="edgeStyle=orthogonalEdgeStyle;rounded=0;sketch=0;orthogonalLoop=1;jettySize=auto;html=1;exitX=0.1;exitY=-0.02;exitDx=0;exitDy=0;entryX=1;entryY=0.5;entryDx=0;entryDy=0;shadow=0;fontFamily=Comic Sans MS;exitPerimeter=0;" edge="1" parent="1" source="yAAUwjmU2Erdggg3t-V5-10" target="yAAUwjmU2Erdggg3t-V5-4">
          <mxGeometry relative="1" as="geometry">
            <Array as="points">
              <mxPoint x="624" y="810" />
              <mxPoint x="330" y="810" />
              <mxPoint x="330" y="745" />
            </Array>
          </mxGeometry>
        </mxCell>
        <mxCell id="yAAUwjmU2Erdggg3t-V5-18" value="Consumer Index Events" style="edgeLabel;html=1;align=center;verticalAlign=middle;resizable=0;points=[];fontFamily=Comic Sans MS;" vertex="1" connectable="0" parent="yAAUwjmU2Erdggg3t-V5-17">
          <mxGeometry x="0.1973" y="-2" relative="1" as="geometry">
            <mxPoint as="offset" />
          </mxGeometry>
        </mxCell>
        <mxCell id="yAAUwjmU2Erdggg3t-V5-10" value="SQS" style="rounded=0;whiteSpace=wrap;html=1;fontFamily=Comic Sans MS;" vertex="1" parent="1">
          <mxGeometry x="590" y="950" width="340" height="50" as="geometry" />
        </mxCell>
        <mxCell id="yAAUwjmU2Erdggg3t-V5-13" value="" style="outlineConnect=0;dashed=0;verticalLabelPosition=bottom;verticalAlign=top;align=center;html=1;shape=mxgraph.aws3.elasticsearch_service;fillColor=#F58534;gradientColor=none;fontFamily=Comic Sans MS;" vertex="1" parent="1">
          <mxGeometry x="150" y="925" width="50" height="55" as="geometry" />
        </mxCell>
        <mxCell id="yAAUwjmU2Erdggg3t-V5-14" value="" style="outlineConnect=0;dashed=0;verticalLabelPosition=bottom;verticalAlign=top;align=center;html=1;shape=mxgraph.aws3.sqs;fillColor=#D9A741;gradientColor=none;fontFamily=Comic Sans MS;" vertex="1" parent="1">
          <mxGeometry x="690" y="948.5" width="46.5" height="53" as="geometry" />
        </mxCell>
      </root>
    </mxGraphModel>
  </diagram>
</mxfile>
